# xmcd
#
# Track frame offsets: 
#        150
#        18659
#        63515
#        84645
#        110118
#        135537
#        155939
#        179476
#        202963
#        230505
#        266450
#
# Disc length: 3874 seconds
#
# Revision: 0
# Processed by: cddbd v1.5.2PL0 Copyright (c) Steve Scherf et al.
# Submitted via: ExactAudioCopy v1.3
#
DISCID=9f0f200b
DTITLE=Bruce Katz Band - Get Your Groove
DYEAR=2018
DGENRE=Blues
TTITLE0=Hesitation Blues
TTITLE1=Freight Train
TTITLE2=Beef Jerky
TTITLE3=Shine Together (Tribe Of Lights)
TTITLE4=River Blues
TTITLE5=Make Things Right
TTITLE6=Get Your Groove
TTITLE7=Zone 3
TTITLE8=Rush Hour
TTITLE9=Wasn't My Time
TTITLE10=The Bun
EXTD=
EXTT0=
EXTT1=
EXTT2=
EXTT3=
EXTT4=
EXTT5=
EXTT6=
EXTT7=
EXTT8=
EXTT9=
EXTT10=
PLAYORDER=
